<svg width="20px" height="26px" id="Livello_1" data-name="Livello 1" xmlns="http://www.w3.org/2000/svg" viewBox="0 0 20 26"><defs><style>.cls-1{fill:#606060;}</style></defs><g id="Symbols"><g id="pin-start"><g id="Page-1"><path class="cls-1" d="M10.00171,0A10.072,10.072,0,0,0,0,10.1109c0,4.06177,2.42224,7.86639,4.75861,10.7016A36.84013,36.84013,0,0,0,9.4314,25.5379L10.00171,26l.57037-.4621a36.84215,36.84215,0,0,0,4.67273-4.7254C17.58118,17.97729,20,14.17267,20,10.1109A10.069,10.069,0,0,0,10.00171,0ZM10.016,14.77094c-6.44519,0-6.43457-10,0-10C16.46112,4.77094,16.4505,14.77094,10.016,14.77094Z"/></g></g></g></svg>