<?xml version="1.0" encoding="UTF-8"?>
<svg width="20px" height="26px" viewBox="0 0 20 26" version="1.1" xmlns="http://www.w3.org/2000/svg" xmlns:xlink="http://www.w3.org/1999/xlink">
    <!-- Generator: Sketch 48.2 (47327) - http://www.bohemiancoding.com/sketch -->
    <title>pin-stop</title>
    <desc>Created with Sketch.</desc>
    <defs>
        <polygon id="path-1" points="0 0 20 0 20 26 0 26"></polygon>
    </defs>
    <g id="Symbols" stroke="none" stroke-width="1" fill="none" fill-rule="evenodd">
        <g id="pin-stop">
            <mask id="mask-2" fill="white">
                <use xlink:href="#path-1"></use>
            </mask>
            <g id="Clip-2"></g>
            <path d="M10.0017179,0 C4.49063735,0 0,4.53775224 0,10.1109181 C0,14.172658 2.42226422,17.9772818 4.75863254,20.8125084 C7.09500086,23.6477349 9.43136918,25.5378859 9.43136918,25.5378859 L10.0017179,26 L10.5720667,25.5378859 C10.5720667,25.5378859 12.908435,23.6477349 15.2448033,20.8125084 C17.5811716,17.9772818 20,14.172658 20,10.1109181 C20,4.53775224 15.5127985,0 10.0017179,0" id="Fill-1" fill="#D8232A"></path>
            <path d="M13.0869565,6 L6.91304348,6 C6.41304348,6 6,6.41304348 6,6.91304348 L6,13.0869565 C6,13.5869565 6.41304348,14 6.91304348,14 L13.0869565,14 C13.5869565,14 14,13.5869565 14,13.0869565 L14,6.91304348 C14,6.41304348 13.5869565,6 13.0869565,6 Z" id="Shape-Copy" fill="#FFFFFF" fill-rule="nonzero"></path>
        </g>
    </g>
</svg>